<?xml version='1.0' encoding='utf-8'?>
<svg xmlns="http://www.w3.org/2000/svg" xmlns:xlink="http://www.w3.org/1999/xlink" viewBox="0 0 17700 3052" fill-rule="evenodd" clip-rule="evenodd" xml:space="preserve" overflow="hidden">
  <g transform="matrix(1.12656 0 0 1.20972 -22.7651 48.8014)">
    <g id="background">
      <rect x="25.356" y="-40.025" width="15711.3" height="2522.57" fill="#FFFFFF"/>
    </g>
  </g>
  <g id="expanded" transform="matrix(1 0 0 -1 999.994 1852.12)">
    <path d="M114-798C126-815.333 143-824 165-824L167-824C185.667-824 204.333-804 223-764 241.667-724 259-669.333 275-600 291-530.667 306-461 320-391 334-321 348-245.333 362-164 364-150 365.667-139.667 367-133 415 150.333 467 413 523 655 579 897 619.667 1054.33 645 1127 649 1139 652.333 1149 655 1157 657.667 1165 663.333 1179.67 672 1201 680.667 1222.33 689.667 1241 699 1257 708.333 1273 719.667 1289.33 733 1306 746.333 1322.67 761 1336 777 1346 793 1356 810 1360.67 828 1360 865.333 1360 893.333 1348.33 912 1325 930.667 1301.67 941.333 1275 944 1245 944 1228.33 940 1215 932 1205 924 1195 916.333 1188.67 909 1186 901.667 1183.33 894.333 1182.33 887 1183 873 1183 860.333 1188 849 1198 837.667 1208 832 1221.67 832 1239 832 1271 849.667 1290 885 1296L882 1300C880 1302 877.333 1304.33 874 1307 870.667 1309.67 868 1311.67 866 1313 856 1319.67 845 1323 833 1323 823.667 1323 815 1319 807 1311 799 1303 788.333 1284.33 775 1255 761.667 1225.67 748.667 1187 736 1139 723.333 1091 707.667 1023.33 689 936 670.333 848.667 651.667 746 633 628 593.667 404.667 552.667 193.667 510-5 467.333-203.667 434-347.667 410-437 386-526.333 367.667-590.333 355-629 303.667-784.333 240.333-862 165-862 138.333-862 114-851.667 92-831 70-810.333 57.667-782 55-746 55-722.667 61.333-706.667 74-698 86.667-689.333 99.333-685 112-685 126-685 138.667-690 150-700 161.333-710 167-723.667 167-741 167-773 149.333-792 114-798Z" stroke="#000000" stroke-width="12" fill-rule="nonzero"/>
    <g transform="translate(1235 0)">
      <rect x="0" y="220" width="13072" height="60" stroke="#000000" stroke-width="12" stroke-linecap="round" stroke-linejoin="round"/>
      <g transform="translate(60 676)">
        <path d="M213 578 200 573C190.667 569.667 177.333 566.333 160 563 142.667 559.667 123.333 557.333 102 556L83 556 83 602 102 602C133.333 603.333 162.333 608.333 189 617 215.667 625.667 234.333 633.667 245 641 255.667 648.333 265 655.667 273 663 274.333 665 278.333 666 285 666 291 666 296.667 664 302 660L302 361 303 61C307.667 56.333 311.667 53.333 315 52 318.333 50.667 326.333 49.333 339 48 351.667 46.667 372.333 46 401 46L427 46 427 0 416 0C402 2 349 3 257 3 166.333 3 114 2 100 0L88 0 88 46 152 46C162.667 46 171 46.333 177 47 183 47.667 188.333 48.667 193 50 197.667 51.333 200.333 52 201 52 201.667 52 203.667 53.667 207 57 210.333 60.333 212.333 61.667 213 61L213 578Z" stroke="#000000" stroke-width="12" fill-rule="nonzero"/>
        <g transform="translate(505 0)">
          <path d="M96 585C133.333 639 184.333 666 249 666 281 666 313 657.333 345 640 377 622.667 403 592 423 548 447.667 492.667 460 416.667 460 320 460 216.667 445.667 137.667 417 83 403.667 55 385.333 32.667 362 16 338.667-0.667 318.333-11 301-15 283.667-19 266.667-21.333 250-22 232.667-22 215.333-20 198-16 180.667-12 160.333-1.333 137 16 113.667 33.333 95.333 55.667 82 83 53.333 137.667 39 216.667 39 320 39 436 58 524.333 96 585ZM321 597C301 618.333 277.333 629 250 629 222 629 198 618.333 178 597 161.333 579.667 150.333 555.667 145 525 139.667 494.333 137 430.333 137 333 137 227.667 139.667 158.333 145 125 150.333 91.667 162.333 65.333 181 46 199.667 26 222.667 16 250 16 276.667 16 299.333 26 318 46 337.333 66 349.333 94 354 130 358.667 166 361.333 233.667 362 333 362 429.667 359.333 493.333 354 524 348.667 554.667 337.667 579 321 597Z" stroke="#000000" stroke-width="12" fill-rule="nonzero"/>
        </g>
        <g transform="translate(1010 0)">
          <path d="M52 289C56.667 317 74.667 349.333 106 386 137.333 422.667 176 441.333 222 442 245.333 442 266.667 436 286 424 305.333 412 319.667 397 329 379 357 421 390.667 442 430 442 454.667 442 476 434.667 494 420 512 405.333 521.333 385.667 522 361 522 341.667 517.333 326 508 314 498.667 302 489.667 294.667 481 292 472.333 289.333 464.667 288 458 288 445.333 288 435 291.667 427 299 419 306.333 415 316 415 328 415 358.667 431.667 379.667 465 391 457.667 399.667 444.333 404 425 404 416.333 404 410 403.333 406 402 380.667 391.333 362 369.333 350 336 310 188.667 290 102.667 290 78 290 59.333 295.333 46 306 38 316.667 30 328.333 26 341 26 365.667 26 390 37 414 59 438 81 454.333 108 463 140 465 146.667 467 150.333 469 151 471 151.667 476.333 152.333 485 153L489 153C499 153 504 150.333 504 145 504 144.333 503.333 140.667 502 134 491.333 96 470.667 62.333 440 33 409.333 3.667 373.667-11 333-11 286.333-11 251 10 227 52 199.667 10.667 168.333-10 133-10L127-10C94.333-10 71-1.333 57 16 43 33.333 35.667 51.667 35 71 35 92.333 41.333 109.667 54 123 66.667 136.333 81.667 143 99 143 127.667 143 142 129 142 101 142 87.667 138 76 130 66 122 56 114.333 49.333 107 46 99.667 42.667 95.333 41 94 41L91 40C91 39.333 93 38 97 36 101 34 106.333 31.667 113 29 119.667 26.333 126 25.333 132 26 156 26 176.667 41 194 71 200 81.667 207.667 104.333 217 139 226.333 173.667 235.667 209.667 245 247 254.333 284.333 259.667 306.333 261 313 264.333 331 266 344 266 352 266 370.667 261 384 251 392 241 400 229.667 404 217 404 190.333 404 165.333 393.333 142 372 118.667 350.667 102.333 323.333 93 290 91.667 284 90 280.667 88 280 86 279.333 80.667 278.667 72 278L58 278C54 282 52 285.667 52 289Z" stroke="#000000" stroke-width="12" fill-rule="nonzero"/>
          <g transform="matrix(0.707107 0 0 0.707107 576.999 362.746)">
            <path d="M462 0C450 2 407 3 333 3 255.667 3 211 2 199 0L190 0 190 46 248 46C252.667 46 258.333 46.667 265 48 271.667 49.333 276.333 51 279 53 281.667 55 284 57.667 286 61 286.667 62.333 287 80.333 287 115L287 165 28 165 28 211 179 442C281 596.667 332.667 674.333 334 675 335.333 676.333 342.333 677 355 677L373 677 379 671 379 211 471 211 471 165 379 165 379 66C379 61.333 381 57.333 385 54 390.333 49.333 409.333 46.667 442 46L471 46 471 0 462 0ZM293 211 293 545 74 212 183 211 293 211Z" stroke="#000000" stroke-width="16.97" fill-rule="nonzero"/>
          </g>
        </g>
        <g transform="translate(2266 0)">
          <path d="M56 237C93.333 395 93.333 399.333 56 250 18.667 100.667 23.333 107.333 70 270L369 270 369 420 370 570C376.667 578.667 383 583 389 583 397.667 583 404.333 578 409 568L409 270 707 270C717 264.667 722 258 722 250 722 242 717 235.333 707 230L409 230 409-68C403.667-77.333 397.667-82 391-82L387-82C379-82 373-77.333 369-68L369 230 70 230C60.667 234.667 56 241.333 56 250L56 237Z" stroke="#000000" stroke-width="12" fill-rule="nonzero"/>
        </g>
        <g transform="translate(3271 0)">
          <path d="M52 289C56.667 317 74.667 349.333 106 386 137.333 422.667 176 441.333 222 442 245.333 442 266.667 436 286 424 305.333 412 319.667 397 329 379 357 421 390.667 442 430 442 454.667 442 476 434.667 494 420 512 405.333 521.333 385.667 522 361 522 341.667 517.333 326 508 314 498.667 302 489.667 294.667 481 292 472.333 289.333 464.667 288 458 288 445.333 288 435 291.667 427 299 419 306.333 415 316 415 328 415 358.667 431.667 379.667 465 391 457.667 399.667 444.333 404 425 404 416.333 404 410 403.333 406 402 380.667 391.333 362 369.333 350 336 310 188.667 290 102.667 290 78 290 59.333 295.333 46 306 38 316.667 30 328.333 26 341 26 365.667 26 390 37 414 59 438 81 454.333 108 463 140 465 146.667 467 150.333 469 151 471 151.667 476.333 152.333 485 153L489 153C499 153 504 150.333 504 145 504 144.333 503.333 140.667 502 134 491.333 96 470.667 62.333 440 33 409.333 3.667 373.667-11 333-11 286.333-11 251 10 227 52 199.667 10.667 168.333-10 133-10L127-10C94.333-10 71-1.333 57 16 43 33.333 35.667 51.667 35 71 35 92.333 41.333 109.667 54 123 66.667 136.333 81.667 143 99 143 127.667 143 142 129 142 101 142 87.667 138 76 130 66 122 56 114.333 49.333 107 46 99.667 42.667 95.333 41 94 41L91 40C91 39.333 93 38 97 36 101 34 106.333 31.667 113 29 119.667 26.333 126 25.333 132 26 156 26 176.667 41 194 71 200 81.667 207.667 104.333 217 139 226.333 173.667 235.667 209.667 245 247 254.333 284.333 259.667 306.333 261 313 264.333 331 266 344 266 352 266 370.667 261 384 251 392 241 400 229.667 404 217 404 190.333 404 165.333 393.333 142 372 118.667 350.667 102.333 323.333 93 290 91.667 284 90 280.667 88 280 86 279.333 80.667 278.667 72 278L58 278C54 282 52 285.667 52 289Z" stroke="#000000" stroke-width="12" fill-rule="nonzero"/>
          <g transform="matrix(0.707107 0 0 0.707107 576.999 362.746)">
            <path d="M127 463C109 463 95 468.667 85 480 75 491.333 69.667 506 69 524 69 560.667 85 593.333 117 622 149 650.667 187.667 665 233 665 256.333 665 271 664.667 277 664 326.333 656 364 638.333 390 611 416 583.667 429.333 554 430 522 430 487.333 418.667 453.667 396 421 373.333 388.333 342 364.667 302 350L299 348C299 347.333 302 346.333 308 345 314 343.667 323.667 340.667 337 336 350.333 331.333 363 324.333 375 315 429.667 279.667 457 233 457 175 457 122.333 436.333 76.333 395 37 353.667-2.333 301.333-22 238-22 184.667-22 138.667-7.667 100 21 61.333 49.667 42 86 42 130 42 148.667 48 163.667 60 175 72 186.333 87 192.333 105 193 123.667 193 139 187 151 175 163 163 169 148 169 130 169 122.667 168 116 166 110 164 104 161.667 98.667 159 94 156.333 89.333 152.667 85.333 148 82 143.333 78.667 139.333 76 136 74 132.667 72 129.333 70.667 126 70 122.667 69.333 120 68.333 118 67L114 66C148 36 189.333 21 238 21 274.667 21 302.333 38.667 321 74 332.333 96 338 129.667 338 175L338 195C338 258.333 316.667 300.667 274 322 264 326 243.667 328.333 213 329L171 330 168 332C166.667 334 166 339.333 166 348 166 360 168.667 366 174 366 192.667 366 212 367.667 232 371 254.667 374.333 275.333 388.333 294 413 312.667 437.667 322 475 322 525L322 533C322 571 310.333 597.333 287 612 272.333 621.333 256.667 626 240 626 218.667 626 199 622.333 181 615 163 607.667 150.333 600 143 592 135.667 584 132 580 132 580L135 580C137 579.333 139.667 578.667 143 578 146.333 577.333 149.667 575.667 153 573 156.333 570.333 160.333 568 165 566 169.667 564 173 560.333 175 555 177 549.667 179.667 544.667 183 540 186.333 535.333 187.333 528.667 186 520 186 505.333 181.333 492.333 172 481 162.667 469.667 147.667 463.667 127 463Z" stroke="#000000" stroke-width="16.97" fill-rule="nonzero"/>
          </g>
        </g>
        <g transform="translate(4750 0)">
          <path d="M56 237C93.333 395 93.333 399.333 56 250 18.667 100.667 23.333 107.333 70 270L369 270 369 420 370 570C376.667 578.667 383 583 389 583 397.667 583 404.333 578 409 568L409 270 707 270C717 264.667 722 258 722 250 722 242 717 235.333 707 230L409 230 409-68C403.667-77.333 397.667-82 391-82L387-82C379-82 373-77.333 369-68L369 230 70 230C60.667 234.667 56 241.333 56 250L56 237Z" stroke="#000000" stroke-width="12" fill-rule="nonzero"/>
        </g>
        <g transform="translate(5977 0)">
          <path d="M52 289C56.667 317 74.667 349.333 106 386 137.333 422.667 176 441.333 222 442 245.333 442 266.667 436 286 424 305.333 412 319.667 397 329 379 357 421 390.667 442 430 442 454.667 442 476 434.667 494 420 512 405.333 521.333 385.667 522 361 522 341.667 517.333 326 508 314 498.667 302 489.667 294.667 481 292 472.333 289.333 464.667 288 458 288 445.333 288 435 291.667 427 299 419 306.333 415 316 415 328 415 358.667 431.667 379.667 465 391 457.667 399.667 444.333 404 425 404 416.333 404 410 403.333 406 402 380.667 391.333 362 369.333 350 336 310 188.667 290 102.667 290 78 290 59.333 295.333 46 306 38 316.667 30 328.333 26 341 26 365.667 26 390 37 414 59 438 81 454.333 108 463 140 465 146.667 467 150.333 469 151 471 151.667 476.333 152.333 485 153L489 153C499 153 504 150.333 504 145 504 144.333 503.333 140.667 502 134 491.333 96 470.667 62.333 440 33 409.333 3.667 373.667-11 333-11 286.333-11 251 10 227 52 199.667 10.667 168.333-10 133-10L127-10C94.333-10 71-1.333 57 16 43 33.333 35.667 51.667 35 71 35 92.333 41.333 109.667 54 123 66.667 136.333 81.667 143 99 143 127.667 143 142 129 142 101 142 87.667 138 76 130 66 122 56 114.333 49.333 107 46 99.667 42.667 95.333 41 94 41L91 40C91 39.333 93 38 97 36 101 34 106.333 31.667 113 29 119.667 26.333 126 25.333 132 26 156 26 176.667 41 194 71 200 81.667 207.667 104.333 217 139 226.333 173.667 235.667 209.667 245 247 254.333 284.333 259.667 306.333 261 313 264.333 331 266 344 266 352 266 370.667 261 384 251 392 241 400 229.667 404 217 404 190.333 404 165.333 393.333 142 372 118.667 350.667 102.333 323.333 93 290 91.667 284 90 280.667 88 280 86 279.333 80.667 278.667 72 278L58 278C54 282 52 285.667 52 289Z" stroke="#000000" stroke-width="12" fill-rule="nonzero"/>
          <g transform="matrix(0.707107 0 0 0.707107 576.999 362.746)">
            <path d="M109 429C91 429 76.667 435 66 447 55.333 459 50 473.667 50 491 50 538.333 67.667 579.333 103 614 138.333 648.667 182.333 666 235 666 295.667 666 346.333 647.333 387 610 427.667 572.667 448.333 524.333 449 465 449 436.333 442.333 409 429 383 415.667 357 399.667 334.333 381 315 362.333 295.667 335.667 271 301 241 277 220.333 243.667 189.667 201 149L142 93 218 92C322.667 92 378.333 93.667 385 97 389.667 98.333 397.667 128 409 186L409 189 449 189 449 186C448.333 184 444 153.667 436 95 428 36.333 423 5.667 421 3L421 0 50 0 50 31C50 35.667 52 40.667 56 46 60 51.333 70 63 86 81 105.333 102.333 122 121 136 137 142 143.667 153.333 156 170 174 186.667 192 198 204.333 204 211 210 217.667 219.667 228.667 233 244 246.333 259.333 255.667 270.667 261 278 266.333 285.333 274 295.333 284 308 294 320.667 301 331.333 305 340 309 348.667 314 358.333 320 369 326 379.667 330.333 390.333 333 401 335.667 411.667 338 421.667 340 431 342 440.333 343 451.333 343 464 343 506 331.667 542.333 309 573 286.333 603.667 254 619 212 619 190 619 170.667 613.333 154 602 137.333 590.667 125.667 579.667 119 569 112.333 558.333 109 552 109 550 109 549.333 110.667 549 114 549 126 549 138.333 544.333 151 535 163.667 525.667 170 510.333 170 489 170 472.333 164.667 458.333 154 447 143.333 435.667 128.333 429.667 109 429Z" stroke="#000000" stroke-width="16.97" fill-rule="nonzero"/>
          </g>
        </g>
        <g transform="translate(7456 0)">
          <path d="M56 237C93.333 395 93.333 399.333 56 250 18.667 100.667 23.333 107.333 70 270L369 270 369 420 370 570C376.667 578.667 383 583 389 583 397.667 583 404.333 578 409 568L409 270 707 270C717 264.667 722 258 722 250 722 242 717 235.333 707 230L409 230 409-68C403.667-77.333 397.667-82 391-82L387-82C379-82 373-77.333 369-68L369 230 70 230C60.667 234.667 56 241.333 56 250L56 237Z" stroke="#000000" stroke-width="12" fill-rule="nonzero"/>
        </g>
        <g transform="translate(8683 0)">
          <path d="M127 463C109 463 95 468.667 85 480 75 491.333 69.667 506 69 524 69 560.667 85 593.333 117 622 149 650.667 187.667 665 233 665 256.333 665 271 664.667 277 664 326.333 656 364 638.333 390 611 416 583.667 429.333 554 430 522 430 487.333 418.667 453.667 396 421 373.333 388.333 342 364.667 302 350L299 348C299 347.333 302 346.333 308 345 314 343.667 323.667 340.667 337 336 350.333 331.333 363 324.333 375 315 429.667 279.667 457 233 457 175 457 122.333 436.333 76.333 395 37 353.667-2.333 301.333-22 238-22 184.667-22 138.667-7.667 100 21 61.333 49.667 42 86 42 130 42 148.667 48 163.667 60 175 72 186.333 87 192.333 105 193 123.667 193 139 187 151 175 163 163 169 148 169 130 169 122.667 168 116 166 110 164 104 161.667 98.667 159 94 156.333 89.333 152.667 85.333 148 82 143.333 78.667 139.333 76 136 74 132.667 72 129.333 70.667 126 70 122.667 69.333 120 68.333 118 67L114 66C148 36 189.333 21 238 21 274.667 21 302.333 38.667 321 74 332.333 96 338 129.667 338 175L338 195C338 258.333 316.667 300.667 274 322 264 326 243.667 328.333 213 329L171 330 168 332C166.667 334 166 339.333 166 348 166 360 168.667 366 174 366 192.667 366 212 367.667 232 371 254.667 374.333 275.333 388.333 294 413 312.667 437.667 322 475 322 525L322 533C322 571 310.333 597.333 287 612 272.333 621.333 256.667 626 240 626 218.667 626 199 622.333 181 615 163 607.667 150.333 600 143 592 135.667 584 132 580 132 580L135 580C137 579.333 139.667 578.667 143 578 146.333 577.333 149.667 575.667 153 573 156.333 570.333 160.333 568 165 566 169.667 564 173 560.333 175 555 177 549.667 179.667 544.667 183 540 186.333 535.333 187.333 528.667 186 520 186 505.333 181.333 492.333 172 481 162.667 469.667 147.667 463.667 127 463Z" stroke="#000000" stroke-width="12" fill-rule="nonzero"/>
          <g transform="translate(505 0)">
            <path d="M213 578 200 573C190.667 569.667 177.333 566.333 160 563 142.667 559.667 123.333 557.333 102 556L83 556 83 602 102 602C133.333 603.333 162.333 608.333 189 617 215.667 625.667 234.333 633.667 245 641 255.667 648.333 265 655.667 273 663 274.333 665 278.333 666 285 666 291 666 296.667 664 302 660L302 361 303 61C307.667 56.333 311.667 53.333 315 52 318.333 50.667 326.333 49.333 339 48 351.667 46.667 372.333 46 401 46L427 46 427 0 416 0C402 2 349 3 257 3 166.333 3 114 2 100 0L88 0 88 46 152 46C162.667 46 171 46.333 177 47 183 47.667 188.333 48.667 193 50 197.667 51.333 200.333 52 201 52 201.667 52 203.667 53.667 207 57 210.333 60.333 212.333 61.667 213 61L213 578Z" stroke="#000000" stroke-width="12" fill-rule="nonzero"/>
          </g>
        </g>
        <g transform="translate(9693 0)">
          <path d="M52 289C56.667 317 74.667 349.333 106 386 137.333 422.667 176 441.333 222 442 245.333 442 266.667 436 286 424 305.333 412 319.667 397 329 379 357 421 390.667 442 430 442 454.667 442 476 434.667 494 420 512 405.333 521.333 385.667 522 361 522 341.667 517.333 326 508 314 498.667 302 489.667 294.667 481 292 472.333 289.333 464.667 288 458 288 445.333 288 435 291.667 427 299 419 306.333 415 316 415 328 415 358.667 431.667 379.667 465 391 457.667 399.667 444.333 404 425 404 416.333 404 410 403.333 406 402 380.667 391.333 362 369.333 350 336 310 188.667 290 102.667 290 78 290 59.333 295.333 46 306 38 316.667 30 328.333 26 341 26 365.667 26 390 37 414 59 438 81 454.333 108 463 140 465 146.667 467 150.333 469 151 471 151.667 476.333 152.333 485 153L489 153C499 153 504 150.333 504 145 504 144.333 503.333 140.667 502 134 491.333 96 470.667 62.333 440 33 409.333 3.667 373.667-11 333-11 286.333-11 251 10 227 52 199.667 10.667 168.333-10 133-10L127-10C94.333-10 71-1.333 57 16 43 33.333 35.667 51.667 35 71 35 92.333 41.333 109.667 54 123 66.667 136.333 81.667 143 99 143 127.667 143 142 129 142 101 142 87.667 138 76 130 66 122 56 114.333 49.333 107 46 99.667 42.667 95.333 41 94 41L91 40C91 39.333 93 38 97 36 101 34 106.333 31.667 113 29 119.667 26.333 126 25.333 132 26 156 26 176.667 41 194 71 200 81.667 207.667 104.333 217 139 226.333 173.667 235.667 209.667 245 247 254.333 284.333 259.667 306.333 261 313 264.333 331 266 344 266 352 266 370.667 261 384 251 392 241 400 229.667 404 217 404 190.333 404 165.333 393.333 142 372 118.667 350.667 102.333 323.333 93 290 91.667 284 90 280.667 88 280 86 279.333 80.667 278.667 72 278L58 278C54 282 52 285.667 52 289Z" stroke="#000000" stroke-width="12" fill-rule="nonzero"/>
        </g>
        <g transform="translate(10714 0)">
          <path d="M56 237C93.333 395 93.333 399.333 56 250 18.667 100.667 23.333 107.333 70 270L369 270 369 420 370 570C376.667 578.667 383 583 389 583 397.667 583 404.333 578 409 568L409 270 707 270C717 264.667 722 258 722 250 722 242 717 235.333 707 230L409 230 409-68C403.667-77.333 397.667-82 391-82L387-82C379-82 373-77.333 369-68L369 230 70 230C60.667 234.667 56 241.333 56 250L56 237Z" stroke="#000000" stroke-width="12" fill-rule="nonzero"/>
        </g>
        <g transform="translate(11942 0)">
          <path d="M164 157C164 141 158.667 127.667 148 117 137.333 106.333 124.333 101 109 101L102 101C132.667 48.333 173.333 22 224 22 270.667 22 304.667 42 326 82 338.667 104 345 146.667 345 210 345 278.667 336 325 318 349 300.667 371 281.333 382 260 382L254 382C202 382 162.667 359.333 136 314 133.333 309.333 131 306.667 129 306 127 305.333 122 304.667 114 304 102.667 304 96.333 306 95 310 93.667 312.667 93 371 93 485L93 614C93 647.333 94.667 664 98 664 99.333 665.333 100.667 666 102 666 102.667 666 109.667 663.333 123 658 136.333 652.667 154.667 647.333 178 642 201.333 636.667 226.333 634 253 634 300.333 634 345.667 643.333 389 662 394.333 664.667 398.667 666 402 666 407.333 666 410 660 410 648L410 635C355.333 570.333 287 538 205 538 184.333 538 165.667 540 149 544L139 546 139 374C151.667 383.333 161.667 390.667 169 396 176.333 401.333 188.333 406.667 205 412 221.667 417.333 238.667 420 256 420 310 420 355.667 398.333 393 355 430.333 311.667 449 260.333 449 201 449 139.667 427.667 87.333 385 44 342.333 0.667 290.333-21.333 229-22 175-22 131.667-4 99 32 66.333 68 50 108.667 50 154 50 170 53.667 182.667 61 192 68.333 201.333 76 207.333 84 210 92 212.667 99.667 214 107 214 123.667 214 137.333 208.333 148 197 158.667 185.667 164 172.333 164 157Z" stroke="#000000" stroke-width="12" fill-rule="nonzero"/>
          <g transform="translate(505 0)">
            <path d="M462 0C450 2 407 3 333 3 255.667 3 211 2 199 0L190 0 190 46 248 46C252.667 46 258.333 46.667 265 48 271.667 49.333 276.333 51 279 53 281.667 55 284 57.667 286 61 286.667 62.333 287 80.333 287 115L287 165 28 165 28 211 179 442C281 596.667 332.667 674.333 334 675 335.333 676.333 342.333 677 355 677L373 677 379 671 379 211 471 211 471 165 379 165 379 66C379 61.333 381 57.333 385 54 390.333 49.333 409.333 46.667 442 46L471 46 471 0 462 0ZM293 211 293 545 74 212 183 211 293 211Z" stroke="#000000" stroke-width="12" fill-rule="nonzero"/>
          </g>
        </g>
      </g>
      <g transform="translate(2362 -687)">
        <path d="M52 289C56.667 317 74.667 349.333 106 386 137.333 422.667 176 441.333 222 442 245.333 442 266.667 436 286 424 305.333 412 319.667 397 329 379 357 421 390.667 442 430 442 454.667 442 476 434.667 494 420 512 405.333 521.333 385.667 522 361 522 341.667 517.333 326 508 314 498.667 302 489.667 294.667 481 292 472.333 289.333 464.667 288 458 288 445.333 288 435 291.667 427 299 419 306.333 415 316 415 328 415 358.667 431.667 379.667 465 391 457.667 399.667 444.333 404 425 404 416.333 404 410 403.333 406 402 380.667 391.333 362 369.333 350 336 310 188.667 290 102.667 290 78 290 59.333 295.333 46 306 38 316.667 30 328.333 26 341 26 365.667 26 390 37 414 59 438 81 454.333 108 463 140 465 146.667 467 150.333 469 151 471 151.667 476.333 152.333 485 153L489 153C499 153 504 150.333 504 145 504 144.333 503.333 140.667 502 134 491.333 96 470.667 62.333 440 33 409.333 3.667 373.667-11 333-11 286.333-11 251 10 227 52 199.667 10.667 168.333-10 133-10L127-10C94.333-10 71-1.333 57 16 43 33.333 35.667 51.667 35 71 35 92.333 41.333 109.667 54 123 66.667 136.333 81.667 143 99 143 127.667 143 142 129 142 101 142 87.667 138 76 130 66 122 56 114.333 49.333 107 46 99.667 42.667 95.333 41 94 41L91 40C91 39.333 93 38 97 36 101 34 106.333 31.667 113 29 119.667 26.333 126 25.333 132 26 156 26 176.667 41 194 71 200 81.667 207.667 104.333 217 139 226.333 173.667 235.667 209.667 245 247 254.333 284.333 259.667 306.333 261 313 264.333 331 266 344 266 352 266 370.667 261 384 251 392 241 400 229.667 404 217 404 190.333 404 165.333 393.333 142 372 118.667 350.667 102.333 323.333 93 290 91.667 284 90 280.667 88 280 86 279.333 80.667 278.667 72 278L58 278C54 282 52 285.667 52 289Z" stroke="#000000" stroke-width="12" fill-rule="nonzero"/>
        <g transform="matrix(0.707107 0 0 0.707107 576.999 288.5)">
          <path d="M127 463C109 463 95 468.667 85 480 75 491.333 69.667 506 69 524 69 560.667 85 593.333 117 622 149 650.667 187.667 665 233 665 256.333 665 271 664.667 277 664 326.333 656 364 638.333 390 611 416 583.667 429.333 554 430 522 430 487.333 418.667 453.667 396 421 373.333 388.333 342 364.667 302 350L299 348C299 347.333 302 346.333 308 345 314 343.667 323.667 340.667 337 336 350.333 331.333 363 324.333 375 315 429.667 279.667 457 233 457 175 457 122.333 436.333 76.333 395 37 353.667-2.333 301.333-22 238-22 184.667-22 138.667-7.667 100 21 61.333 49.667 42 86 42 130 42 148.667 48 163.667 60 175 72 186.333 87 192.333 105 193 123.667 193 139 187 151 175 163 163 169 148 169 130 169 122.667 168 116 166 110 164 104 161.667 98.667 159 94 156.333 89.333 152.667 85.333 148 82 143.333 78.667 139.333 76 136 74 132.667 72 129.333 70.667 126 70 122.667 69.333 120 68.333 118 67L114 66C148 36 189.333 21 238 21 274.667 21 302.333 38.667 321 74 332.333 96 338 129.667 338 175L338 195C338 258.333 316.667 300.667 274 322 264 326 243.667 328.333 213 329L171 330 168 332C166.667 334 166 339.333 166 348 166 360 168.667 366 174 366 192.667 366 212 367.667 232 371 254.667 374.333 275.333 388.333 294 413 312.667 437.667 322 475 322 525L322 533C322 571 310.333 597.333 287 612 272.333 621.333 256.667 626 240 626 218.667 626 199 622.333 181 615 163 607.667 150.333 600 143 592 135.667 584 132 580 132 580L135 580C137 579.333 139.667 578.667 143 578 146.333 577.333 149.667 575.667 153 573 156.333 570.333 160.333 568 165 566 169.667 564 173 560.333 175 555 177 549.667 179.667 544.667 183 540 186.333 535.333 187.333 528.667 186 520 186 505.333 181.333 492.333 172 481 162.667 469.667 147.667 463.667 127 463Z" stroke="#000000" stroke-width="16.97" fill-rule="nonzero"/>
        </g>
        <g transform="translate(1256 0)">
          <path d="M56 237C93.333 395 93.333 399.333 56 250 18.667 100.667 23.333 107.333 70 270L369 270 369 420 370 570C376.667 578.667 383 583 389 583 397.667 583 404.333 578 409 568L409 270 707 270C717 264.667 722 258 722 250 722 242 717 235.333 707 230L409 230 409-68C403.667-77.333 397.667-82 391-82L387-82C379-82 373-77.333 369-68L369 230 70 230C60.667 234.667 56 241.333 56 250L56 237Z" stroke="#000000" stroke-width="12" fill-rule="nonzero"/>
        </g>
        <g transform="translate(2261 0)">
          <path d="M55 458C55.667 459.333 61.333 495.667 72 567L88 674C88 675.333 94.667 676 108 676L128 676 128 672C128 665.333 133 659.667 143 655 153 650.333 170.333 647.333 195 646 219.667 644.667 276 644 364 644L485 644 485 605 417 512C411 504 401 490.667 387 472 373 453.333 364 441 360 435 356 429 349 418.333 339 403 329 387.667 322.333 375.667 319 367 315.667 358.333 311 346 305 330 299 314 294.667 298.667 292 284 289.333 269.333 286.667 251.333 284 230 281.333 208.667 279.333 186 278 162 276.667 138 275.667 110.667 275 80L275 52C275 42.667 274.667 34.667 274 28L274 19C271.333 7.667 265-2 255-10 245-18 233.667-22 221-22 213.667-22 206.667-21 200-19 193.333-17 186.333-10.667 179 0 171.667 10.667 168 24 168 40 168 145.333 200.333 254.667 265 368 278.333 389.333 306.333 429.667 349 489L395 552 302 552C186 552 125 550 119 546 115 544 111.333 536 108 522 104.667 508 101.333 493.667 98 479L95 458 95 455 55 455 55 458Z" stroke="#000000" stroke-width="12" fill-rule="nonzero"/>
        </g>
        <g transform="translate(2766 0)">
          <path d="M52 289C56.667 317 74.667 349.333 106 386 137.333 422.667 176 441.333 222 442 245.333 442 266.667 436 286 424 305.333 412 319.667 397 329 379 357 421 390.667 442 430 442 454.667 442 476 434.667 494 420 512 405.333 521.333 385.667 522 361 522 341.667 517.333 326 508 314 498.667 302 489.667 294.667 481 292 472.333 289.333 464.667 288 458 288 445.333 288 435 291.667 427 299 419 306.333 415 316 415 328 415 358.667 431.667 379.667 465 391 457.667 399.667 444.333 404 425 404 416.333 404 410 403.333 406 402 380.667 391.333 362 369.333 350 336 310 188.667 290 102.667 290 78 290 59.333 295.333 46 306 38 316.667 30 328.333 26 341 26 365.667 26 390 37 414 59 438 81 454.333 108 463 140 465 146.667 467 150.333 469 151 471 151.667 476.333 152.333 485 153L489 153C499 153 504 150.333 504 145 504 144.333 503.333 140.667 502 134 491.333 96 470.667 62.333 440 33 409.333 3.667 373.667-11 333-11 286.333-11 251 10 227 52 199.667 10.667 168.333-10 133-10L127-10C94.333-10 71-1.333 57 16 43 33.333 35.667 51.667 35 71 35 92.333 41.333 109.667 54 123 66.667 136.333 81.667 143 99 143 127.667 143 142 129 142 101 142 87.667 138 76 130 66 122 56 114.333 49.333 107 46 99.667 42.667 95.333 41 94 41L91 40C91 39.333 93 38 97 36 101 34 106.333 31.667 113 29 119.667 26.333 126 25.333 132 26 156 26 176.667 41 194 71 200 81.667 207.667 104.333 217 139 226.333 173.667 235.667 209.667 245 247 254.333 284.333 259.667 306.333 261 313 264.333 331 266 344 266 352 266 370.667 261 384 251 392 241 400 229.667 404 217 404 190.333 404 165.333 393.333 142 372 118.667 350.667 102.333 323.333 93 290 91.667 284 90 280.667 88 280 86 279.333 80.667 278.667 72 278L58 278C54 282 52 285.667 52 289Z" stroke="#000000" stroke-width="12" fill-rule="nonzero"/>
          <g transform="matrix(0.707107 0 0 0.707107 576.999 288.5)">
            <path d="M109 429C91 429 76.667 435 66 447 55.333 459 50 473.667 50 491 50 538.333 67.667 579.333 103 614 138.333 648.667 182.333 666 235 666 295.667 666 346.333 647.333 387 610 427.667 572.667 448.333 524.333 449 465 449 436.333 442.333 409 429 383 415.667 357 399.667 334.333 381 315 362.333 295.667 335.667 271 301 241 277 220.333 243.667 189.667 201 149L142 93 218 92C322.667 92 378.333 93.667 385 97 389.667 98.333 397.667 128 409 186L409 189 449 189 449 186C448.333 184 444 153.667 436 95 428 36.333 423 5.667 421 3L421 0 50 0 50 31C50 35.667 52 40.667 56 46 60 51.333 70 63 86 81 105.333 102.333 122 121 136 137 142 143.667 153.333 156 170 174 186.667 192 198 204.333 204 211 210 217.667 219.667 228.667 233 244 246.333 259.333 255.667 270.667 261 278 266.333 285.333 274 295.333 284 308 294 320.667 301 331.333 305 340 309 348.667 314 358.333 320 369 326 379.667 330.333 390.333 333 401 335.667 411.667 338 421.667 340 431 342 440.333 343 451.333 343 464 343 506 331.667 542.333 309 573 286.333 603.667 254 619 212 619 190 619 170.667 613.333 154 602 137.333 590.667 125.667 579.667 119 569 112.333 558.333 109 552 109 550 109 549.333 110.667 549 114 549 126 549 138.333 544.333 151 535 163.667 525.667 170 510.333 170 489 170 472.333 164.667 458.333 154 447 143.333 435.667 128.333 429.667 109 429Z" stroke="#000000" stroke-width="16.97" fill-rule="nonzero"/>
          </g>
        </g>
        <g transform="translate(4022 0)">
          <path d="M56 237C93.333 395 93.333 399.333 56 250 18.667 100.667 23.333 107.333 70 270L369 270 369 420 370 570C376.667 578.667 383 583 389 583 397.667 583 404.333 578 409 568L409 270 707 270C717 264.667 722 258 722 250 722 242 717 235.333 707 230L409 230 409-68C403.667-77.333 397.667-82 391-82L387-82C379-82 373-77.333 369-68L369 230 70 230C60.667 234.667 56 241.333 56 250L56 237Z" stroke="#000000" stroke-width="12" fill-rule="nonzero"/>
        </g>
        <g transform="translate(5028 0)">
          <path d="M164 157C164 141 158.667 127.667 148 117 137.333 106.333 124.333 101 109 101L102 101C132.667 48.333 173.333 22 224 22 270.667 22 304.667 42 326 82 338.667 104 345 146.667 345 210 345 278.667 336 325 318 349 300.667 371 281.333 382 260 382L254 382C202 382 162.667 359.333 136 314 133.333 309.333 131 306.667 129 306 127 305.333 122 304.667 114 304 102.667 304 96.333 306 95 310 93.667 312.667 93 371 93 485L93 614C93 647.333 94.667 664 98 664 99.333 665.333 100.667 666 102 666 102.667 666 109.667 663.333 123 658 136.333 652.667 154.667 647.333 178 642 201.333 636.667 226.333 634 253 634 300.333 634 345.667 643.333 389 662 394.333 664.667 398.667 666 402 666 407.333 666 410 660 410 648L410 635C355.333 570.333 287 538 205 538 184.333 538 165.667 540 149 544L139 546 139 374C151.667 383.333 161.667 390.667 169 396 176.333 401.333 188.333 406.667 205 412 221.667 417.333 238.667 420 256 420 310 420 355.667 398.333 393 355 430.333 311.667 449 260.333 449 201 449 139.667 427.667 87.333 385 44 342.333 0.667 290.333-21.333 229-22 175-22 131.667-4 99 32 66.333 68 50 108.667 50 154 50 170 53.667 182.667 61 192 68.333 201.333 76 207.333 84 210 92 212.667 99.667 214 107 214 123.667 214 137.333 208.333 148 197 158.667 185.667 164 172.333 164 157Z" stroke="#000000" stroke-width="12" fill-rule="nonzero"/>
        </g>
        <g transform="translate(5533 0)">
          <path d="M52 289C56.667 317 74.667 349.333 106 386 137.333 422.667 176 441.333 222 442 245.333 442 266.667 436 286 424 305.333 412 319.667 397 329 379 357 421 390.667 442 430 442 454.667 442 476 434.667 494 420 512 405.333 521.333 385.667 522 361 522 341.667 517.333 326 508 314 498.667 302 489.667 294.667 481 292 472.333 289.333 464.667 288 458 288 445.333 288 435 291.667 427 299 419 306.333 415 316 415 328 415 358.667 431.667 379.667 465 391 457.667 399.667 444.333 404 425 404 416.333 404 410 403.333 406 402 380.667 391.333 362 369.333 350 336 310 188.667 290 102.667 290 78 290 59.333 295.333 46 306 38 316.667 30 328.333 26 341 26 365.667 26 390 37 414 59 438 81 454.333 108 463 140 465 146.667 467 150.333 469 151 471 151.667 476.333 152.333 485 153L489 153C499 153 504 150.333 504 145 504 144.333 503.333 140.667 502 134 491.333 96 470.667 62.333 440 33 409.333 3.667 373.667-11 333-11 286.333-11 251 10 227 52 199.667 10.667 168.333-10 133-10L127-10C94.333-10 71-1.333 57 16 43 33.333 35.667 51.667 35 71 35 92.333 41.333 109.667 54 123 66.667 136.333 81.667 143 99 143 127.667 143 142 129 142 101 142 87.667 138 76 130 66 122 56 114.333 49.333 107 46 99.667 42.667 95.333 41 94 41L91 40C91 39.333 93 38 97 36 101 34 106.333 31.667 113 29 119.667 26.333 126 25.333 132 26 156 26 176.667 41 194 71 200 81.667 207.667 104.333 217 139 226.333 173.667 235.667 209.667 245 247 254.333 284.333 259.667 306.333 261 313 264.333 331 266 344 266 352 266 370.667 261 384 251 392 241 400 229.667 404 217 404 190.333 404 165.333 393.333 142 372 118.667 350.667 102.333 323.333 93 290 91.667 284 90 280.667 88 280 86 279.333 80.667 278.667 72 278L58 278C54 282 52 285.667 52 289Z" stroke="#000000" stroke-width="12" fill-rule="nonzero"/>
        </g>
        <g transform="translate(6332 0)">
          <path d="M56 237C93.333 395 93.333 399.333 56 250 18.667 100.667 23.333 107.333 70 270L369 270 369 420 370 570C376.667 578.667 383 583 389 583 397.667 583 404.333 578 409 568L409 270 707 270C717 264.667 722 258 722 250 722 242 717 235.333 707 230L409 230 409-68C403.667-77.333 397.667-82 391-82L387-82C379-82 373-77.333 369-68L369 230 70 230C60.667 234.667 56 241.333 56 250L56 237Z" stroke="#000000" stroke-width="12" fill-rule="nonzero"/>
        </g>
        <g transform="translate(7337 0)">
          <path d="M127 463C109 463 95 468.667 85 480 75 491.333 69.667 506 69 524 69 560.667 85 593.333 117 622 149 650.667 187.667 665 233 665 256.333 665 271 664.667 277 664 326.333 656 364 638.333 390 611 416 583.667 429.333 554 430 522 430 487.333 418.667 453.667 396 421 373.333 388.333 342 364.667 302 350L299 348C299 347.333 302 346.333 308 345 314 343.667 323.667 340.667 337 336 350.333 331.333 363 324.333 375 315 429.667 279.667 457 233 457 175 457 122.333 436.333 76.333 395 37 353.667-2.333 301.333-22 238-22 184.667-22 138.667-7.667 100 21 61.333 49.667 42 86 42 130 42 148.667 48 163.667 60 175 72 186.333 87 192.333 105 193 123.667 193 139 187 151 175 163 163 169 148 169 130 169 122.667 168 116 166 110 164 104 161.667 98.667 159 94 156.333 89.333 152.667 85.333 148 82 143.333 78.667 139.333 76 136 74 132.667 72 129.333 70.667 126 70 122.667 69.333 120 68.333 118 67L114 66C148 36 189.333 21 238 21 274.667 21 302.333 38.667 321 74 332.333 96 338 129.667 338 175L338 195C338 258.333 316.667 300.667 274 322 264 326 243.667 328.333 213 329L171 330 168 332C166.667 334 166 339.333 166 348 166 360 168.667 366 174 366 192.667 366 212 367.667 232 371 254.667 374.333 275.333 388.333 294 413 312.667 437.667 322 475 322 525L322 533C322 571 310.333 597.333 287 612 272.333 621.333 256.667 626 240 626 218.667 626 199 622.333 181 615 163 607.667 150.333 600 143 592 135.667 584 132 580 132 580L135 580C137 579.333 139.667 578.667 143 578 146.333 577.333 149.667 575.667 153 573 156.333 570.333 160.333 568 165 566 169.667 564 173 560.333 175 555 177 549.667 179.667 544.667 183 540 186.333 535.333 187.333 528.667 186 520 186 505.333 181.333 492.333 172 481 162.667 469.667 147.667 463.667 127 463Z" stroke="#000000" stroke-width="12" fill-rule="nonzero"/>
          <g transform="translate(505 0)">
            <path d="M164 157C164 141 158.667 127.667 148 117 137.333 106.333 124.333 101 109 101L102 101C132.667 48.333 173.333 22 224 22 270.667 22 304.667 42 326 82 338.667 104 345 146.667 345 210 345 278.667 336 325 318 349 300.667 371 281.333 382 260 382L254 382C202 382 162.667 359.333 136 314 133.333 309.333 131 306.667 129 306 127 305.333 122 304.667 114 304 102.667 304 96.333 306 95 310 93.667 312.667 93 371 93 485L93 614C93 647.333 94.667 664 98 664 99.333 665.333 100.667 666 102 666 102.667 666 109.667 663.333 123 658 136.333 652.667 154.667 647.333 178 642 201.333 636.667 226.333 634 253 634 300.333 634 345.667 643.333 389 662 394.333 664.667 398.667 666 402 666 407.333 666 410 660 410 648L410 635C355.333 570.333 287 538 205 538 184.333 538 165.667 540 149 544L139 546 139 374C151.667 383.333 161.667 390.667 169 396 176.333 401.333 188.333 406.667 205 412 221.667 417.333 238.667 420 256 420 310 420 355.667 398.333 393 355 430.333 311.667 449 260.333 449 201 449 139.667 427.667 87.333 385 44 342.333 0.667 290.333-21.333 229-22 175-22 131.667-4 99 32 66.333 68 50 108.667 50 154 50 170 53.667 182.667 61 192 68.333 201.333 76 207.333 84 210 92 212.667 99.667 214 107 214 123.667 214 137.333 208.333 148 197 158.667 185.667 164 172.333 164 157Z" stroke="#000000" stroke-width="12" fill-rule="nonzero"/>
          </g>
        </g>
      </g>
    </g>
    <g transform="translate(14594 0)">
      <path d="M366 683C366.667 683 390.667 684.667 438 688 485.333 691.333 509.667 693.333 511 694 519 694 523 691.333 523 686 523 681.333 498.667 580.667 450 384 401.333 187.333 376.333 87 375 83 373.667 79 373.333 74 374 68 374 40 383.333 26 402 26 408 26.667 414.667 29.667 422 35 436 48.333 449.667 80.333 463 131 467 144.333 470.333 151.333 473 152 474.333 152.667 477.667 153 483 153L491 153C501 153 506 150.333 506 145 506 141.667 505 136.333 503 129 494.333 95.667 484.333 68.667 473 48 461.667 27.333 452.333 14 445 8 437.667 2 428.333-3.333 417-8 411.667-9.333 403.667-10 393-10 370.333-10 351.333-5 336 5 320.667 15 310.667 25.333 306 36L300 51C299.333 51.667 298 51.333 296 50 294.667 48.667 293.333 47.333 292 46 252.667 8.667 212.667-10 172-10 135.333-10 103 3.333 75 30 47 56.667 33 99 33 157 33 189 39.667 221.667 53 255 66.333 288.333 82.333 317 101 341 132.333 379 163.667 405.333 195 420 226.333 434.667 254.667 442 280 442 317.333 442 345.333 428 364 400 367.333 396 369 394.667 369 396 369.667 398.667 378.667 435 396 505 413.333 575 422.667 612 424 616 424 624.667 421.667 630 417 632 412.333 634 399.333 635.667 378 637L357 637C353 641 351 643.667 351 645 351 646.333 351.667 652.667 353 664 356.333 676.667 360.667 683 366 683ZM352 326C336.667 378.667 311.667 405 277 405 253.667 405 231.333 394.667 210 374 188.667 353.333 172 326.333 160 293 140.667 240.333 127 185.667 119 129L119 118C119 112.667 118.667 108.667 118 106 118 76 124 55.333 136 44 148 32.667 162.333 26.667 179 26 215 26 252 50 290 98L298 109 352 326Z" stroke="#000000" stroke-width="12" fill-rule="nonzero"/>
    </g>
    <g transform="translate(15122 0)">
      <path d="M52 289C56.667 317 74.667 349.333 106 386 137.333 422.667 176 441.333 222 442 245.333 442 266.667 436 286 424 305.333 412 319.667 397 329 379 357 421 390.667 442 430 442 454.667 442 476 434.667 494 420 512 405.333 521.333 385.667 522 361 522 341.667 517.333 326 508 314 498.667 302 489.667 294.667 481 292 472.333 289.333 464.667 288 458 288 445.333 288 435 291.667 427 299 419 306.333 415 316 415 328 415 358.667 431.667 379.667 465 391 457.667 399.667 444.333 404 425 404 416.333 404 410 403.333 406 402 380.667 391.333 362 369.333 350 336 310 188.667 290 102.667 290 78 290 59.333 295.333 46 306 38 316.667 30 328.333 26 341 26 365.667 26 390 37 414 59 438 81 454.333 108 463 140 465 146.667 467 150.333 469 151 471 151.667 476.333 152.333 485 153L489 153C499 153 504 150.333 504 145 504 144.333 503.333 140.667 502 134 491.333 96 470.667 62.333 440 33 409.333 3.667 373.667-11 333-11 286.333-11 251 10 227 52 199.667 10.667 168.333-10 133-10L127-10C94.333-10 71-1.333 57 16 43 33.333 35.667 51.667 35 71 35 92.333 41.333 109.667 54 123 66.667 136.333 81.667 143 99 143 127.667 143 142 129 142 101 142 87.667 138 76 130 66 122 56 114.333 49.333 107 46 99.667 42.667 95.333 41 94 41L91 40C91 39.333 93 38 97 36 101 34 106.333 31.667 113 29 119.667 26.333 126 25.333 132 26 156 26 176.667 41 194 71 200 81.667 207.667 104.333 217 139 226.333 173.667 235.667 209.667 245 247 254.333 284.333 259.667 306.333 261 313 264.333 331 266 344 266 352 266 370.667 261 384 251 392 241 400 229.667 404 217 404 190.333 404 165.333 393.333 142 372 118.667 350.667 102.333 323.333 93 290 91.667 284 90 280.667 88 280 86 279.333 80.667 278.667 72 278L58 278C54 282 52 285.667 52 289Z" stroke="#000000" stroke-width="12" fill-rule="nonzero"/>
    </g>
  </g>
</svg>
